<?xml version="1.0" standalone="no"?>
<!DOCTYPE svg PUBLIC "-//W3C//DTD SVG 20010904//EN"
 "http://www.w3.org/TR/2001/REC-SVG-20010904/DTD/svg10.dtd">
<svg version="1.0" xmlns="http://www.w3.org/2000/svg"
 width="477.000000pt" height="255.000000pt" viewBox="0 0 477.000000 255.000000"
 preserveAspectRatio="xMidYMid meet">
<metadata>
Created by potrace 1.16, written by Peter Selinger 2001-2019
</metadata>
<g transform="translate(0.000000,255.000000) scale(0.100000,-0.100000)"
fill="#000000" stroke="none">
<path d="M1475 2170 c4 -12 22 -56 41 -97 19 -42 33 -80 32 -85 -2 -5 -64 -39
-138 -76 -133 -66 -135 -68 -187 -141 -35 -48 -53 -83 -53 -102 0 -41 -34 -40
-49 1 -11 32 -15 34 -98 24 -51 -7 -52 -8 -67 -50 -13 -40 -13 -45 3 -66 18
-21 19 -22 45 -4 28 18 72 18 69 1 -1 -6 -4 -22 -8 -37 -6 -24 -4 -27 22 -30
22 -2 30 -10 39 -37 15 -47 42 -60 64 -31 17 22 21 23 121 15 l103 -7 69 -51
c38 -28 73 -62 78 -74 l9 -23 280 0 c154 0 280 2 280 4 0 2 -20 16 -44 30 -52
30 -98 85 -128 153 -34 74 -31 190 6 263 16 30 40 67 54 83 l26 27 -30 31
c-138 148 -319 250 -517 294 -26 5 -28 4 -22 -15z"/>
<path d="M591 1838 c-110 -148 -166 -290 -186 -475 l-7 -63 354 0 354 0 22 39
c27 47 27 51 5 51 -10 0 -40 24 -68 53 -43 47 -62 58 -140 86 l-91 32 -61 97
c-34 53 -78 127 -98 165 -20 37 -39 67 -41 67 -2 0 -21 -24 -43 -52z"/>
<path d="M4024 1820 c-174 -25 -222 -292 -72 -397 70 -48 182 -42 248 13 54
46 72 87 72 168 0 73 -14 118 -51 160 -38 43 -120 67 -197 56z m117 -47 c17
-15 38 -42 45 -60 20 -46 17 -179 -4 -223 -20 -41 -75 -80 -112 -80 -39 0 -92
39 -115 85 -26 54 -27 174 0 229 37 76 125 100 186 49z"/>
<path d="M2201 1809 c-115 -47 -166 -196 -105 -308 56 -104 203 -142 323 -83
l36 17 5 84 c4 72 8 85 25 92 12 4 -14 8 -65 8 -69 -1 -80 -3 -57 -11 26 -9
27 -12 27 -88 0 -91 -9 -101 -85 -102 -134 -3 -206 160 -135 302 20 39 83 80
125 80 45 0 94 -30 118 -71 12 -21 25 -39 30 -39 4 0 7 28 7 63 l0 62 -113 2
c-61 1 -123 -2 -136 -8z"/>
<path d="M2545 1810 c3 -5 13 -10 21 -10 26 0 34 -48 34 -196 0 -152 -6 -179
-43 -194 -15 -6 8 -9 73 -9 73 0 89 3 70 10 -35 14 -40 26 -40 107 0 99 16 95
110 -24 l75 -94 55 0 55 0 -28 18 c-15 9 -57 53 -92 97 l-65 80 39 17 c47 20
71 52 71 95 0 44 -43 91 -95 103 -55 13 -248 13 -240 0z m218 -32 c51 -27 62
-80 24 -124 -18 -21 -35 -28 -75 -32 l-52 -5 0 80 c0 44 3 83 7 86 10 11 73 8
96 -5z"/>
<path d="M2993 1814 c4 -4 17 -12 29 -18 22 -11 23 -18 28 -167 6 -175 14
-199 78 -226 54 -23 155 -13 189 18 44 41 53 78 53 213 0 68 3 132 6 141 4 9
18 22 33 28 25 11 25 11 -17 15 -23 2 -59 2 -80 0 l-37 -3 30 -15 30 -15 3
-130 c4 -153 -6 -198 -48 -220 -48 -25 -105 -19 -142 14 l-33 29 -3 140 c-4
148 3 182 38 182 11 0 20 5 20 10 0 6 -37 10 -92 10 -50 0 -88 -3 -85 -6z"/>
<path d="M3480 1814 c0 -5 10 -14 23 -19 21 -10 22 -15 25 -170 3 -182 1 -198
-30 -213 -19 -8 -5 -11 67 -11 71 1 84 3 63 11 -31 11 -41 45 -36 118 l3 45
62 7 c98 11 140 39 150 101 7 44 -18 92 -60 114 -35 18 -267 33 -267 17z m231
-53 c37 -38 38 -79 3 -121 -24 -28 -32 -31 -73 -28 l-46 3 -3 74 c-2 41 -1 80
2 88 3 8 21 13 46 13 33 0 48 -6 71 -29z"/>
<path d="M400 1236 c0 -51 26 -181 50 -252 94 -276 304 -487 577 -580 469
-159 982 81 1156 541 35 93 57 188 57 253 l0 52 -317 -1 -318 0 73 -37 c39
-20 72 -42 72 -49 0 -8 -22 -58 -49 -112 l-50 -98 -50 -7 c-50 -7 -51 -7 -57
-47 -6 -36 -18 -50 -113 -130 -98 -83 -110 -97 -156 -184 l-49 -95 34 -35 c18
-19 32 -36 29 -38 -2 -3 -28 3 -58 11 -50 14 -55 18 -77 68 l-23 52 28 109
c16 59 43 167 60 240 l32 131 -50 47 c-43 40 -52 55 -64 108 l-13 62 -362 3
c-310 2 -362 0 -362 -12z"/>
<path d="M3416 1135 c9 -34 -35 -193 -60 -216 -19 -19 -19 -19 50 -19 l69 0 0
44 c0 55 12 68 33 36 42 -64 67 -80 126 -80 31 0 56 2 56 4 0 2 -15 19 -32 38
-18 19 -41 49 -51 66 l-17 30 59 49 c32 26 67 53 77 60 16 10 6 12 -54 12 -63
1 -72 -1 -70 -16 2 -10 -16 -31 -47 -54 -27 -21 -51 -37 -53 -35 -7 7 19 86
28 86 6 0 10 5 10 10 0 6 -28 10 -65 10 -65 0 -65 0 -59 -25z"/>
<path d="M3765 1137 c6 -20 -36 -204 -51 -229 -3 -4 25 -8 62 -8 57 0 65 2 54
15 -14 17 -5 68 15 85 8 6 31 10 52 8 35 -3 38 -1 41 25 3 26 1 27 -38 27 -37
0 -41 2 -38 23 2 18 10 23 46 25 24 2 49 -2 57 -8 15 -12 19 -7 29 33 l6 27
-120 0 -120 0 5 -23z"/>
<path d="M4082 1149 c-18 -5 -51 -28 -72 -49 -36 -36 -40 -45 -40 -90 0 -40 5
-56 24 -75 38 -37 119 -54 194 -39 22 4 31 13 35 31 4 24 3 25 -39 18 -101
-15 -160 70 -95 136 25 24 38 29 80 29 27 0 53 -4 56 -10 10 -17 23 -11 29 14
4 18 11 23 26 19 13 -3 20 0 20 9 0 10 -21 14 -92 15 -51 1 -108 -3 -126 -8z"/>
</g>
</svg>
